<svg viewBox="0 0 1024 1024"><path d="M976.521 976.521c-14.237 14.237-33.224 14.237-42.714 0L762.948 805.662l42.714-42.714 170.859 170.859c14.237 14.237 14.237 33.224 0 42.714zM454.454 867.363c-227.81 0-417.653-185.096-417.653-417.653 0-227.81 185.096-412.909 417.653-412.909s417.653 185.096 417.653 417.653c-4.747 227.81-189.843 412.909-417.653 412.909zm0-768.864c-194.589 0-355.955 161.366-355.955 355.955s161.366 355.955 355.955 355.955c194.589 0 355.955-161.366 355.955-355.955S649.043 98.499 454.454 98.499z"></path></svg>