<svg  viewBox="0 0 1024 1024"><path d="M512 32.025c-127.298 0-249.379 50.567-339.393 140.582S32.025 384.702 32.025 512c0 127.3 50.567 249.379 140.582 339.394S384.702 991.975 512 991.975c127.3 0 249.379-50.566 339.394-140.581S991.975 639.3 991.975 512c0-127.298-50.566-249.379-140.581-339.393S639.3 32.025 512 32.025zM224.821 224.821A406.134 406.134 0 0 1 918.132 512a406.137 406.137 0 0 1-109.464 277.365 377.907 377.907 0 0 0-111.635-95.428 377.865 377.865 0 0 0-370.061 0 377.948 377.948 0 0 0-111.638 95.428 406.13 406.13 0 0 1 9.487-564.544zm45.77 613.778a304.046 304.046 0 0 1 92.537-80.277 304.057 304.057 0 0 1 148.871-38.945 304.044 304.044 0 0 1 241.41 119.216 406.107 406.107 0 0 1-241.41 79.539 406.14 406.14 0 0 1-241.409-79.533zm162.064-620.367a207.337 207.337 0 0 1 158.695 0 207.366 207.366 0 0 1 112.222 112.219c10.417 25.156 15.783 52.121 15.783 79.349s-5.366 54.195-15.783 79.35a207.383 207.383 0 0 1-44.951 67.266 207.282 207.282 0 0 1-67.271 44.951c-25.155 10.423-52.118 15.783-79.345 15.783s-54.195-5.36-79.35-15.783a207.354 207.354 0 0 1-67.268-44.951c-19.254-19.253-34.527-42.109-44.947-67.266s-15.784-52.123-15.784-79.35c0-27.229 5.362-54.193 15.784-79.349s25.695-48.015 44.947-67.27a207.375 207.375 0 0 1 67.268-44.949zm79.35 58.059a133.53 133.53 0 0 0-51.094 10.162c-16.195 6.709-30.915 16.545-43.31 28.94s-22.23 27.115-28.94 43.313a133.508 133.508 0 0 0 72.25 174.435A133.529 133.529 0 0 0 606.408 504.2a133.436 133.436 0 0 0 28.935-43.31 133.533 133.533 0 0 0 10.166-51.093c0-17.533-3.456-34.893-10.166-51.091a133.48 133.48 0 0 0-28.935-43.313 133.524 133.524 0 0 0-94.403-39.102z"></path></svg>